<?xml version="1.0" encoding="utf-8"?>
<!-- Generator: Adobe Illustrator 22.1.0, SVG Export Plug-In . SVG Version: 6.00 Build 0)  -->
<svg version="1.1" id="Layer_1" xmlns="http://www.w3.org/2000/svg" xmlns:xlink="http://www.w3.org/1999/xlink" x="0px" y="0px"
	 viewBox="0 0 1260.6 140" style="enable-background:new 0 0 1260.6 140;" xml:space="preserve">
<style type="text/css">
	.st0{fill:#8CD600;}
	.st1{fill:#FFFFFF;}
</style>
<g>
	<path class="st0" d="M741.7,68.8c-0.6-12.8-4.7-25.3-11.7-36l-49.2,24l7.6-54.2c-12.4-3.4-25.5-3.4-37.9,0l7.6,54.2l-49.2-24
		c-7,10.7-11.1,23.2-11.7,36l53.9,9.5l-38,39.4c8.1,10,18.6,17.7,30.7,22.3l25.7-48.4l25.7,48.4c12-4.6,22.6-12.3,30.7-22.3
		l-38-39.4L741.7,68.8z"/>
	<g>
		<path class="st1" d="M147.4,0h-18.5c-2.1,0.1-3.7,1.7-3.8,3.8l0,132.4c0.1,2.1,1.7,3.7,3.8,3.8h18.5c2.1-0.1,3.7-1.7,3.8-3.8V3.8
			C151.1,1.7,149.4,0.1,147.4,0z"/>
		<path class="st1" d="M70.9,68.9C81.2,63.7,91.1,52,91.1,37c0-21-18.3-37-41.9-37H3.8C1.7,0,0,1.7,0,3.8c0,0,0,0,0,0v132.4
			c0,2.1,1.7,3.8,3.8,3.8c0,0,0,0,0,0h48c24.2,0,43.3-16.2,43.3-38.6C95.1,82.6,82.5,72.9,70.9,68.9z M47.2,23.8
			c10.1,0,16.7,7,16.7,17s-6.5,18-16.7,18H25.6l0-35H47.2z M50,116.4L50,116.4l-24.4,0V80.8H50c9.4-0.3,17.2,7.1,17.5,16.5
			c0,0.3,0,0.6,0,0.9C67.5,108.6,60,116.4,50,116.4z"/>
		<path class="st1" d="M291.8,0.7h-16.8c-2,0.1-3.5,1.8-3.5,3.8v82.8L200.9,1.4C200.1,0.5,199,0,197.8,0h-6.7
			c-1.9,0.1-3.5,1.6-3.5,3.6v132c0,2,1.5,3.6,3.5,3.8h16.6c2-0.1,3.5-1.8,3.5-3.8V50.4l71.2,88.2c0.8,0.9,1.9,1.4,3.1,1.4h6.4
			c1.9-0.1,3.5-1.6,3.5-3.6V4.5C295.3,2.5,293.8,0.9,291.8,0.7z"/>
		<path class="st1" d="M432.4,120.1l-11.2-12.4c-1.3-1.4-3.5-1.7-5.1-0.6c-7,4.8-15.2,7.3-23.7,7.4h0c-24,0-42-20.6-42-44.9
			c0-24.5,17.8-45.3,41.8-45.3c8.5,0.1,16.8,2.7,23.9,7.5c1.6,1.1,3.7,0.8,5-0.6l10.9-12c1.5-1.7,1.3-4.2-0.3-5.6
			c-0.1,0-0.1-0.1-0.2-0.1C420.3,4.6,407.9,0,391.7,0C354.2,0,324,31.3,324,70.2c0,38.9,30.2,69.8,67.6,69.8
			c14.7,0.1,29-4.9,40.4-14.2c1.7-1.4,1.9-3.9,0.5-5.5C432.5,120.2,432.5,120.2,432.4,120.1z"/>
		<path class="st1" d="M515.1,66l52.2-58.8c0.8-0.8,1.2-1.9,1.2-3.1c-0.1-2.3-2-4.2-4.4-4.1h-20c-1.5,0-2.9,0.8-3.8,2l-50.4,56.8
			v-54c0-2.6-2.2-4.8-4.8-4.8h-17.6c0,0-0.1,0-0.1,0c-2.6,0-4.7,2.2-4.7,4.8l0,130.4c0,0,0,0.1,0,0.1c0,2.6,2.2,4.7,4.8,4.7h17.6
			c2.6,0,4.8-2.2,4.8-4.8v-61l52.2,64.4c0.9,1,2.2,1.5,3.6,1.4h21.8c1,0,1.9-0.3,2.7-0.9c1.9-1.4,2.4-4.2,0.9-6.1L515.1,66z"/>
		<path class="st1" d="M821.7,0c-0.4,0-0.8,0-1.1,0c-0.1,0-0.2,0-0.3,0h-39c-1.7,0-3.1,1.4-3.1,3.1v133.8c0,1.7,1.4,3.1,3.1,3.1
			h40.4c0.5,0,1,0,1.5-0.1c38.8-0.8,70.1-31.8,70.1-70C893.2,31.3,861.2,0,821.7,0z M866.1,112.4c-11.5,11.4-26.8,17.9-43.2,18.2
			l-0.4,0l-0.4,0c-0.3,0-0.4,0-0.5,0h-34.2V9.3h32.6c0.1,0,0.5,0,0.5,0s1,0,1.1,0c34.3,0,62.2,27.2,62.2,60.6
			C883.9,85.9,877.6,101,866.1,112.4z"/>
		<path class="st1" d="M1021.3,0L1021.3,0h-3.7c-1.7,0-3,1.4-2.9,3.1v118.3L927.5,1.8c-0.7-1.2-2-1.9-3.4-1.8h-1.3
			c-1.7-0.1-3.2,1.2-3.3,2.9c0,0,0,0.1,0,0.1v133.8c0,1.7,1.3,3,2.9,3.1h3.5c1.7,0,3-1.4,2.9-3.1V17.5l87.9,120.7
			c0.7,1.2,2,1.9,3.4,1.8h0.6c1.7,0,3.5-1,3.5-3.1V3.1C1024.3,1.4,1023,0.1,1021.3,0z"/>
		<path class="st1" d="M1173.2,136.9L1173.2,136.9L1113.5,1.6c-0.6-1.1-1.8-1.8-3-1.6h-0.6c-1.2,0-2.2,0.6-2.8,1.7L1046.8,137
			c-0.4,0.7-0.4,1.6,0,2.3c0.4,0.5,1.1,0.8,1.8,0.8h5.5c1.4,0,2.6-0.8,3.2-2.1l15.5-35.7h74.1l15.7,35.8c0.6,1.2,1.8,2,3.2,2h5.1
			c1.1,0.3,2.2-0.3,2.5-1.4C1173.6,138,1173.5,137.4,1173.2,136.9z M1076.8,93.6l33.5-76.6l32.9,76.6H1076.8z"/>
	</g>
</g>
</svg>
