<?xml version="1.0" encoding="UTF-8" standalone="no"?>
<!DOCTYPE svg PUBLIC "-//W3C//DTD SVG 1.1//EN"
 "http://www.w3.org/Graphics/SVG/1.1/DTD/svg11.dtd">
<!-- Generated by graphviz version 2.40.1 (20161225.0304)
 -->
<!-- Title: dependencies Pages: 1 -->
<svg width="816pt" height="366pt"
 viewBox="0.00 0.00 816.00 366.00" xmlns="http://www.w3.org/2000/svg" xmlns:xlink="http://www.w3.org/1999/xlink">
<g id="graph0" class="graph" transform="scale(1 1) rotate(0) translate(4 362)">
<title>dependencies</title>
<polygon fill="#ffffff" stroke="transparent" points="-4,4 -4,-362 812,-362 812,4 -4,4"/>
<text text-anchor="start" x="383.0091" y="-42.4" font-family="sans-serif" font-weight="bold" font-size="14.00" fill="#000000">Legend</text>
<polygon fill="#ffffb3" stroke="transparent" points="170,-10 170,-30 190,-30 190,-10 170,-10"/>
<text text-anchor="start" x="193.629" y="-15.4" font-family="sans-serif" font-size="14.00" fill="#000000"> &#160;Declarations</text>
<polygon fill="#8dd3c7" stroke="transparent" points="283,-10 283,-30 303,-30 303,-10 283,-10"/>
<text text-anchor="start" x="306.7251" y="-15.4" font-family="sans-serif" font-size="14.00" fill="#000000"> &#160;Module</text>
<polygon fill="#80b1d3" stroke="transparent" points="369,-10 369,-30 389,-30 389,-10 369,-10"/>
<text text-anchor="start" x="392.7812" y="-15.4" font-family="sans-serif" font-size="14.00" fill="#000000"> &#160;Bootstrap</text>
<polygon fill="#fdb462" stroke="transparent" points="466,-10 466,-30 486,-30 486,-10 466,-10"/>
<text text-anchor="start" x="489.6732" y="-15.4" font-family="sans-serif" font-size="14.00" fill="#000000"> &#160;Providers</text>
<polygon fill="#fb8072" stroke="transparent" points="562,-10 562,-30 582,-30 582,-10 562,-10"/>
<text text-anchor="start" x="585.7258" y="-15.4" font-family="sans-serif" font-size="14.00" fill="#000000"> &#160;Exports</text>
<g id="clust1" class="cluster">
<title>cluster_AppModule</title>
<polygon fill="none" stroke="#000000" stroke-dasharray="1,5" points="8,-146 8,-350 520,-350 520,-146 8,-146"/>
</g>
<g id="clust2" class="cluster">
<title>cluster_AppModule_declarations</title>
<polygon fill="none" stroke="#000000" points="16,-154 16,-206 138,-206 138,-154 16,-154"/>
</g>
<g id="clust4" class="cluster">
<title>cluster_AppModule_imports</title>
<polygon fill="none" stroke="#000000" points="146,-154 146,-206 512,-206 512,-154 146,-154"/>
</g>
<g id="clust6" class="cluster">
<title>cluster_AppModule_bootstrap</title>
<polygon fill="none" stroke="#000000" points="198,-290 198,-342 322,-342 322,-290 198,-290"/>
</g>
<g id="clust14" class="cluster">
<title>cluster_CoreModule</title>
<polygon fill="none" stroke="#000000" stroke-dasharray="1,5" points="128,-70 128,-138 266,-138 266,-70 128,-70"/>
</g>
<g id="clust19" class="cluster">
<title>cluster_CoreModule_providers</title>
<polygon fill="none" stroke="#000000" points="136,-78 136,-130 258,-130 258,-78 136,-78"/>
</g>
<g id="clust26" class="cluster">
<title>cluster_SharedModule</title>
<polygon fill="none" stroke="#000000" stroke-dasharray="1,5" points="528,-214 528,-282 800,-282 800,-214 528,-214"/>
</g>
<g id="clust28" class="cluster">
<title>cluster_SharedModule_imports</title>
<polygon fill="none" stroke="#000000" points="670,-222 670,-274 792,-274 792,-222 670,-222"/>
</g>
<g id="clust29" class="cluster">
<title>cluster_SharedModule_exports</title>
<polygon fill="none" stroke="#000000" points="536,-222 536,-274 662,-274 662,-222 536,-222"/>
</g>
<!-- AppComponent -->
<g id="node1" class="node">
<title>AppComponent</title>
<polygon fill="#ffffb3" stroke="#000000" points="129.9399,-198 24.0601,-198 24.0601,-162 129.9399,-162 129.9399,-198"/>
<text text-anchor="middle" x="77" y="-175.8" font-family="Times,serif" font-size="14.00" fill="#000000">AppComponent</text>
</g>
<!-- AppModule -->
<g id="node2" class="node">
<title>AppModule</title>
<polygon fill="#8dd3c7" stroke="#000000" points="301.6571,-266 298.6571,-270 277.6571,-270 274.6571,-266 218.3429,-266 218.3429,-230 301.6571,-230 301.6571,-266"/>
<text text-anchor="middle" x="260" y="-243.8" font-family="Times,serif" font-size="14.00" fill="#000000">AppModule</text>
</g>
<!-- AppComponent&#45;&gt;AppModule -->
<g id="edge1" class="edge">
<title>AppComponent&#45;&gt;AppModule</title>
<path fill="none" stroke="#000000" d="M77,-198.2228C77,-218.3652 77,-248 77,-248 77,-248 208.0161,-248 208.0161,-248"/>
<polygon fill="#000000" stroke="#000000" points="208.0161,-251.5001 218.0161,-248 208.0161,-244.5001 208.0161,-251.5001"/>
</g>
<!-- AppComponent  -->
<g id="node6" class="node">
<title>AppComponent </title>
<polygon fill="#80b1d3" stroke="#000000" points="314.439,-334 205.561,-334 205.561,-298 314.439,-298 314.439,-334"/>
<text text-anchor="middle" x="260" y="-311.8" font-family="Times,serif" font-size="14.00" fill="#000000">AppComponent </text>
</g>
<!-- AppModule&#45;&gt;AppComponent  -->
<g id="edge5" class="edge">
<title>AppModule&#45;&gt;AppComponent </title>
<path fill="none" stroke="#000000" stroke-dasharray="1,5" d="M260,-266.2228C260,-266.2228 260,-287.7269 260,-287.7269"/>
<polygon fill="#000000" stroke="#000000" points="256.5001,-287.7269 260,-297.7269 263.5001,-287.727 256.5001,-287.7269"/>
</g>
<!-- AppRoutingModule -->
<g id="node3" class="node">
<title>AppRoutingModule</title>
<polygon fill="#8dd3c7" stroke="#000000" points="387.2744,-198 384.2744,-202 363.2744,-202 360.2744,-198 258.7256,-198 258.7256,-162 387.2744,-162 387.2744,-198"/>
<text text-anchor="middle" x="323" y="-175.8" font-family="Times,serif" font-size="14.00" fill="#000000">AppRoutingModule</text>
</g>
<!-- AppRoutingModule&#45;&gt;AppModule -->
<g id="edge2" class="edge">
<title>AppRoutingModule&#45;&gt;AppModule</title>
<path fill="none" stroke="#000000" d="M280.2206,-198.2228C280.2206,-198.2228 280.2206,-219.7269 280.2206,-219.7269"/>
<polygon fill="#000000" stroke="#000000" points="276.7206,-219.7269 280.2206,-229.7269 283.7206,-219.727 276.7206,-219.7269"/>
</g>
<!-- CoreModule -->
<g id="node4" class="node">
<title>CoreModule</title>
<polygon fill="#8dd3c7" stroke="#000000" points="240.2619,-198 237.2619,-202 216.2619,-202 213.2619,-198 153.7381,-198 153.7381,-162 240.2619,-162 240.2619,-198"/>
<text text-anchor="middle" x="197" y="-175.8" font-family="Times,serif" font-size="14.00" fill="#000000">CoreModule</text>
</g>
<!-- CoreModule&#45;&gt;AppModule -->
<g id="edge3" class="edge">
<title>CoreModule&#45;&gt;AppModule</title>
<path fill="none" stroke="#000000" d="M229.2763,-198.2228C229.2763,-198.2228 229.2763,-219.7269 229.2763,-219.7269"/>
<polygon fill="#000000" stroke="#000000" points="225.7764,-219.7269 229.2763,-229.7269 232.7764,-219.727 225.7764,-219.7269"/>
</g>
<!-- SharedModule -->
<g id="node5" class="node">
<title>SharedModule</title>
<polygon fill="#8dd3c7" stroke="#000000" points="504.4231,-198 501.4231,-202 480.4231,-202 477.4231,-198 405.5769,-198 405.5769,-162 504.4231,-162 504.4231,-198"/>
<text text-anchor="middle" x="455" y="-175.8" font-family="Times,serif" font-size="14.00" fill="#000000">SharedModule</text>
</g>
<!-- SharedModule&#45;&gt;AppModule -->
<g id="edge4" class="edge">
<title>SharedModule&#45;&gt;AppModule</title>
<path fill="none" stroke="#000000" d="M438.5963,-198.2667C438.5963,-216.5552 438.5963,-242 438.5963,-242 438.5963,-242 311.8729,-242 311.8729,-242"/>
<polygon fill="#000000" stroke="#000000" points="311.8729,-238.5001 301.8729,-242 311.8729,-245.5001 311.8729,-238.5001"/>
</g>
<!-- MaterialModule  -->
<g id="node9" class="node">
<title>MaterialModule </title>
<polygon fill="#fb8072" stroke="#000000" points="654.4716,-266 543.5284,-266 543.5284,-230 654.4716,-230 654.4716,-266"/>
<text text-anchor="middle" x="599" y="-243.8" font-family="Times,serif" font-size="14.00" fill="#000000">MaterialModule </text>
</g>
<!-- SharedModule&#45;&gt;MaterialModule  -->
<g id="edge8" class="edge">
<title>SharedModule&#45;&gt;MaterialModule </title>
<path fill="none" stroke="#000000" stroke-dasharray="5,2" d="M471.4037,-198.2921C471.4037,-220.2057 471.4037,-254 471.4037,-254 471.4037,-254 533.4056,-254 533.4056,-254"/>
<polygon fill="#000000" stroke="#000000" points="533.4056,-257.5001 543.4056,-254 533.4055,-250.5001 533.4056,-257.5001"/>
</g>
<!-- Interceptor -->
<g id="node7" class="node">
<title>Interceptor</title>
<ellipse fill="#fdb462" stroke="#000000" cx="197" cy="-104" rx="53.2878" ry="18"/>
<text text-anchor="middle" x="197" y="-99.8" font-family="Times,serif" font-size="14.00" fill="#000000">Interceptor</text>
</g>
<!-- Interceptor&#45;&gt;CoreModule -->
<g id="edge6" class="edge">
<title>Interceptor&#45;&gt;CoreModule</title>
<path fill="none" stroke="#000000" d="M197,-122.0109C197,-122.0109 197,-151.855 197,-151.855"/>
<polygon fill="#000000" stroke="#000000" points="193.5001,-151.8549 197,-161.855 200.5001,-151.855 193.5001,-151.8549"/>
</g>
<!-- MaterialModule -->
<g id="node8" class="node">
<title>MaterialModule</title>
<polygon fill="#8dd3c7" stroke="#000000" points="784.4706,-266 781.4706,-270 760.4706,-270 757.4706,-266 677.5294,-266 677.5294,-230 784.4706,-230 784.4706,-266"/>
<text text-anchor="middle" x="731" y="-243.8" font-family="Times,serif" font-size="14.00" fill="#000000">MaterialModule</text>
</g>
<!-- MaterialModule&#45;&gt;SharedModule -->
<g id="edge7" class="edge">
<title>MaterialModule&#45;&gt;SharedModule</title>
<path fill="none" stroke="#000000" d="M731,-229.7772C731,-209.6348 731,-180 731,-180 731,-180 514.3433,-180 514.3433,-180"/>
<polygon fill="#000000" stroke="#000000" points="514.3433,-176.5001 504.3433,-180 514.3432,-183.5001 514.3433,-176.5001"/>
</g>
</g>
</svg>
